<?xml version="1.0" standalone="no"?>
<!DOCTYPE svg PUBLIC "-//W3C//DTD SVG 20010904//EN"
 "http://www.w3.org/TR/2001/REC-SVG-20010904/DTD/svg10.dtd">
<svg version="1.0" xmlns="http://www.w3.org/2000/svg"
 width="1280.000000pt" height="1280.000000pt" viewBox="0 0 1280.000000 1280.000000"
 preserveAspectRatio="xMidYMid meet">
<metadata>
Created by potrace 1.11, written by Peter Selinger 2001-2013
</metadata>
<g transform="translate(0.000000,1280.000000) scale(0.100000,-0.100000)"
fill="#000000" stroke="none">
<path d="M1061 12493 c1 -32 3 -51 6 -41 2 9 11 19 18 22 20 7 23 -11 30 -184
4 -104 12 -170 29 -235 45 -172 55 -241 62 -409 4 -108 13 -200 26 -260 11
-50 24 -119 29 -153 4 -35 13 -80 18 -100 6 -21 11 -117 12 -213 1 -175 21
-399 39 -455 9 -28 22 -128 39 -295 4 -41 8 -167 9 -280 2 -216 14 -385 37
-535 8 -49 17 -130 20 -180 4 -49 10 -130 14 -180 5 -49 9 -223 10 -385 1
-162 6 -392 13 -510 6 -118 12 -276 14 -350 1 -74 7 -157 13 -185 12 -58 13
-193 15 -1145 1 -816 -3 -1092 -17 -1158 -5 -26 -11 -105 -12 -177 -2 -71 -8
-224 -14 -338 -6 -115 -11 -353 -12 -530 -1 -177 -6 -358 -10 -402 -5 -44 -13
-125 -18 -180 -6 -55 -17 -152 -25 -215 -15 -109 -19 -204 -31 -608 -4 -165
-8 -200 -41 -392 -30 -181 -35 -232 -44 -455 -9 -223 -27 -391 -47 -431 -21
-40 -35 -155 -43 -339 -7 -166 -12 -205 -40 -310 -38 -143 -49 -217 -49 -347
-1 -115 -5 -132 -32 -117 -18 9 -19 6 -19 -45 0 -46 3 -54 16 -49 9 3 23 -3
35 -16 29 -31 94 -29 122 5 90 105 540 537 677 649 107 88 232 201 370 335
263 256 371 352 470 419 19 13 45 34 56 45 12 12 68 64 124 116 92 86 179 168
310 294 75 72 232 208 294 256 75 57 208 175 317 279 46 45 104 101 129 125
96 92 280 253 375 328 55 44 136 114 180 156 44 42 138 131 209 197 71 66 148
138 171 160 22 22 54 51 70 65 17 13 61 51 99 82 38 32 72 58 77 58 10 0 178
151 290 261 41 41 117 112 169 159 51 47 110 101 130 120 38 37 153 132 230
191 70 54 243 208 268 240 13 16 28 29 33 29 5 0 53 44 107 98 80 80 102 108
115 150 9 28 30 72 47 99 55 89 52 273 -6 348 -14 19 -31 56 -38 83 -10 38
-26 61 -72 105 -122 118 -158 143 -210 151 -28 3 -72 20 -104 40 -39 23 -73
35 -115 40 -41 5 -74 16 -107 37 -33 22 -67 33 -111 39 -63 8 -98 22 -147 59
-16 12 -48 21 -87 25 -66 6 -88 14 -139 52 -22 16 -51 25 -95 29 -48 5 -78 15
-119 40 -39 23 -72 35 -115 39 -46 5 -74 16 -117 44 -31 20 -74 48 -95 60 -48
30 -119 118 -141 174 -9 24 -28 61 -42 83 -32 51 -32 52 -33 170 -1 80 3 107
18 135 10 19 31 61 47 92 37 75 131 192 177 220 32 20 157 127 264 227 21 20
57 53 80 75 23 21 62 58 87 82 25 24 51 44 57 44 7 0 18 8 25 19 7 10 51 48
98 84 124 96 170 136 315 271 143 134 184 172 266 242 85 75 101 87 151 122
25 17 59 44 76 59 16 16 71 66 123 113 51 47 110 101 130 120 71 69 210 194
238 214 76 56 149 113 180 140 19 17 55 49 79 71 25 22 61 56 81 75 20 19 83
78 141 130 57 52 114 105 127 117 13 13 65 54 117 92 51 38 106 82 122 98 16
15 71 66 123 113 52 47 111 101 131 120 20 19 63 58 96 87 32 28 74 65 92 81
18 16 60 49 93 73 54 39 207 172 310 270 95 91 285 257 319 279 60 39 107 78
215 174 98 88 115 103 214 196 124 116 125 117 259 218 31 23 69 50 83 60 23
15 98 81 242 213 21 20 60 55 86 78 25 23 68 61 94 86 27 24 57 47 68 50 10 4
19 10 19 14 0 5 19 21 43 37 23 16 60 43 81 61 22 18 45 33 51 33 26 0 64 42
71 76 4 20 16 44 26 54 15 14 19 26 14 44 -7 30 -44 35 -89 11 -15 -7 -71 -19
-124 -25 -80 -9 -108 -17 -158 -45 -52 -29 -77 -35 -164 -44 -83 -9 -116 -17
-176 -46 -63 -31 -86 -36 -171 -41 -80 -5 -118 -14 -199 -44 -87 -32 -117 -38
-220 -44 -66 -4 -138 -15 -160 -23 -135 -51 -149 -54 -307 -63 -150 -9 -221
-22 -378 -66 -36 -10 -131 -18 -280 -24 -244 -9 -408 -24 -455 -42 -16 -6 -70
-15 -120 -20 -130 -14 -1757 -22 -1820 -9 -27 6 -86 13 -130 16 -44 4 -87 8
-95 10 -71 19 -263 38 -450 45 -239 9 -305 18 -439 56 -65 19 -107 24 -193 24
-117 0 -217 17 -331 55 -48 17 -105 27 -172 31 -136 7 -195 19 -253 48 -32 16
-74 27 -118 31 -38 3 -92 8 -119 10 -52 4 -99 19 -175 54 -25 11 -66 21 -91
21 -75 0 -159 20 -224 52 -47 25 -78 32 -146 37 -72 5 -92 11 -126 34 -47 33
-93 47 -149 47 -49 0 -95 15 -147 47 -25 15 -71 29 -127 39 -69 11 -99 21
-133 44 -30 22 -62 34 -108 40 -76 11 -87 15 -151 53 -28 17 -72 32 -106 37
-43 6 -74 18 -111 44 -40 27 -67 37 -112 42 -57 6 -61 8 -56 30 l4 24 -123 0
-124 0 1 -57z m36 15 c-3 -7 -5 -2 -5 12 0 14 2 19 5 13 2 -7 2 -19 0 -25z"/>
<path d="M11610 12531 c0 -11 -27 -48 -60 -83 -43 -44 -60 -70 -60 -89 0 -18
-11 -36 -32 -54 -18 -15 -80 -73 -138 -128 -175 -169 -281 -252 -312 -245 -7
2 -29 -8 -48 -22 -57 -40 -300 -291 -300 -309 0 -9 -42 -53 -92 -98 -51 -44
-116 -103 -144 -130 -72 -69 -142 -119 -197 -140 -36 -14 -80 -51 -182 -151
-73 -73 -137 -141 -140 -152 -3 -11 -18 -29 -33 -41 -29 -22 -248 -225 -297
-275 -38 -38 -111 -85 -119 -77 -3 4 -6 1 -6 -6 0 -7 -4 -10 -9 -7 -5 3 -15
-2 -22 -10 -8 -9 -30 -27 -49 -39 -31 -20 -179 -164 -366 -357 -54 -56 -157
-152 -280 -261 -23 -21 -48 -37 -55 -37 -43 0 -119 -67 -414 -370 -95 -97
-299 -287 -345 -322 -25 -19 -67 -43 -93 -53 -35 -15 -84 -56 -186 -156 -77
-75 -142 -146 -145 -157 -4 -11 -17 -27 -29 -35 -12 -8 -49 -40 -82 -72 -131
-126 -281 -252 -306 -258 -52 -13 -397 -325 -413 -373 -3 -11 -43 -53 -89 -94
-93 -84 -155 -150 -182 -198 -17 -29 -48 -49 -67 -44 -15 4 -20 -49 -8 -78 8
-20 10 -55 6 -107 -4 -43 -3 -122 2 -175 7 -80 14 -105 35 -138 15 -22 27 -53
27 -70 0 -24 14 -43 67 -95 l66 -66 53 7 c48 6 55 4 78 -19 14 -15 26 -35 26
-45 0 -17 10 -21 68 -26 37 -3 80 -6 96 -6 34 1 66 -25 66 -53 0 -18 5 -19 81
-13 76 7 83 6 106 -16 14 -13 29 -33 34 -45 7 -20 16 -23 61 -24 29 -1 68 0
86 1 38 2 82 -31 82 -61 0 -15 14 -18 96 -24 100 -8 134 -23 134 -61 0 -15 9
-16 66 -11 78 8 121 -7 152 -50 17 -24 33 -31 89 -43 58 -11 76 -20 125 -63
33 -28 59 -60 63 -75 3 -15 21 -47 40 -71 20 -25 38 -54 41 -66 3 -12 4 -116
2 -230 l-3 -207 -35 -30 c-91 -79 -280 -273 -291 -299 -6 -16 -15 -29 -19 -29
-5 0 -55 -44 -112 -98 -216 -203 -265 -242 -303 -242 -28 0 -46 -10 -92 -52
-86 -78 -130 -126 -143 -158 -6 -16 -28 -40 -48 -53 -21 -14 -82 -67 -137
-120 -130 -123 -190 -170 -243 -186 -48 -16 -236 -187 -246 -224 -3 -12 -20
-32 -38 -44 -18 -13 -60 -49 -93 -80 -181 -172 -230 -212 -284 -233 -44 -16
-77 -41 -153 -115 -54 -52 -98 -100 -98 -106 0 -6 -28 -36 -62 -67 -35 -32
-101 -93 -148 -138 -99 -94 -176 -154 -199 -154 -9 0 -29 -8 -46 -19 -42 -25
-198 -180 -214 -214 -8 -15 -18 -27 -22 -27 -5 0 -46 -35 -91 -79 -172 -163
-254 -231 -288 -241 -19 -6 -45 -16 -57 -23 -37 -21 -213 -195 -213 -211 0 -8
-8 -21 -19 -28 -10 -7 -75 -67 -145 -133 -70 -66 -140 -127 -156 -135 -15 -8
-57 -30 -92 -49 -34 -18 -79 -50 -99 -70 -19 -20 -60 -60 -91 -88 -31 -29 -58
-63 -62 -76 -3 -13 -23 -36 -43 -50 -21 -14 -87 -73 -148 -131 -60 -58 -114
-106 -118 -106 -5 0 -22 -9 -37 -20 -16 -11 -32 -19 -37 -18 -31 10 -285 -212
-288 -252 -1 -11 -4 -22 -6 -23 -22 -19 -141 -125 -208 -186 -80 -73 -145
-121 -166 -121 -5 0 6 14 25 31 35 30 35 30 4 12 -92 -55 -131 -82 -169 -121
-24 -23 -48 -42 -54 -42 -5 0 -18 -13 -27 -30 -10 -16 -30 -34 -46 -41 -31
-13 -36 -24 -13 -33 21 -8 20 -75 -1 -83 -13 -5 -13 -7 -2 -14 21 -14 103 -10
124 6 11 8 14 15 7 15 -21 0 -15 38 9 54 30 21 78 21 78 0 0 -10 6 -14 15 -11
8 4 49 9 92 12 116 9 121 11 116 38 -4 18 3 30 22 46 29 22 79 28 90 11 7 -11
110 -12 170 -2 29 5 41 13 43 27 9 50 85 83 120 52 11 -10 24 -12 37 -7 11 5
47 9 81 9 109 2 152 11 158 35 7 29 60 58 104 57 206 -4 381 4 368 16 -24 24
131 87 209 84 22 0 112 -4 200 -7 131 -4 161 -3 170 9 18 25 68 44 177 67 77
16 117 20 145 14 57 -12 647 -7 651 5 2 6 19 11 38 11 19 0 34 4 34 9 0 16
150 22 660 27 407 4 507 2 565 -10 39 -8 97 -17 130 -21 32 -3 62 -10 65 -15
6 -10 448 -15 670 -8 53 2 115 -3 140 -9 25 -7 70 -17 101 -23 32 -6 66 -20
80 -33 22 -20 35 -22 171 -25 90 -2 161 0 179 7 24 8 48 7 103 -5 97 -21 122
-32 142 -61 l16 -26 151 6 c144 5 154 4 203 -19 29 -13 59 -24 68 -24 8 0 17
-9 21 -19 5 -16 19 -21 70 -26 60 -7 85 -5 161 10 23 5 46 -1 91 -24 34 -16
69 -38 79 -48 17 -17 68 -21 278 -23 11 0 36 -19 57 -41 l39 -42 62 8 c35 4
75 7 91 6 41 0 98 -31 116 -62 13 -23 25 -29 69 -35 33 -4 70 -2 93 5 22 7 50
9 62 5 28 -8 77 -53 77 -71 0 -7 10 -15 23 -17 36 -8 139 -18 178 -17 37 0 80
-28 91 -59 4 -14 98 -31 164 -30 33 0 81 -40 69 -59 -4 -7 11 -11 45 -11 28 0
67 -8 88 -17 20 -9 48 -17 62 -17 16 -1 26 -8 28 -21 3 -11 9 -23 16 -27 17
-12 101 -9 113 3 24 24 89 -15 96 -59 2 -12 5 -24 8 -26 7 -7 150 -36 177 -36
l22 0 0 209 c0 202 -1 209 -19 204 -15 -4 -25 5 -42 39 -20 37 -22 56 -21 138
7 272 3 403 -12 419 -48 53 -92 254 -81 366 4 39 8 138 9 220 1 137 -1 155
-21 195 -27 56 -70 250 -77 350 -4 51 -1 93 10 130 12 44 13 91 8 238 -4 100
-11 182 -15 182 -5 0 -9 11 -9 24 0 14 -4 27 -8 30 -5 3 -14 45 -21 93 -7 48
-19 124 -27 168 -9 46 -15 135 -14 210 4 669 3 873 -4 890 -14 32 -17 46 -26
115 -5 36 -14 85 -20 110 -7 28 -9 76 -5 126 5 59 2 97 -9 142 -17 65 -18 163
-16 1517 0 330 -2 704 -5 830 -5 197 3 509 20 795 9 154 37 387 53 440 14 47
16 104 14 385 -4 636 -4 659 8 690 6 16 15 73 20 127 4 53 15 112 24 129 9 18
16 43 16 56 0 12 4 23 9 23 17 0 24 298 9 371 -25 124 14 431 70 549 17 35 18
62 11 470 -1 62 4 104 19 152 25 81 50 131 61 124 13 -9 21 76 21 235 0 88 -4
150 -10 154 -22 14 -3 176 26 223 8 12 23 22 34 22 19 0 20 7 20 195 l0 195
-60 0 c-53 0 -60 -2 -60 -19z"/>
</g>
</svg>
